<?xml version="1.0" encoding="utf-8"?>
<!-- Generator: Adobe Illustrator 25.2.3, SVG Export Plug-In . SVG Version: 6.00 Build 0)  -->
<svg version="1.1" id="Capa_1" xmlns="http://www.w3.org/2000/svg" xmlns:xlink="http://www.w3.org/1999/xlink" x="0px" y="0px"
	 viewBox="0 0 1920 1080" style="enable-background:new 0 0 1920 1080;" xml:space="preserve">
<g>
	<path d="M0,156.8c16.4-4.6,32.7-9.2,49.8-13.9c-2.9-2.2-6.8-5.1-13.1-9.9c8.3-3,14.9-5.5,21.6-7.7c5.3-1.8,11.7-1.8,15.7-5.2
		c44.3-37.6,90.4-27.2,137.3-7.5c4.9,2.1,13.4,2.4,16.8-0.8c22.3-20.1,46.5-13,70.4-6.8c16.7,4.3,33,10.6,49.5,15.7
		c2,0.6,4.5-0.7,6.7-1.1c0.4-2,0.7-3.9,1.1-5.9c-8.5-2.1-17-4.3-27.1-6.8c5-21.2-12.4-11-20.9-14.6c17.6-27.4,38.2-29.2,60.2-9.3
		c6.3,5.7,19.8,3,29.9,2.5c4.6-0.2,9.1-4.4,13.6-6.8c1.2,2.7,2.5,5.4,3.7,8.2c-12.2,6.5-24.4,13-39.5,21c0.2,1,1.1,10.6,2.6,10.7
		c9.6,0.7,19.4-0.1,28.9-1.7c4.4-0.7,8.1-5.7,12.5-6.6c11.3-2.5,21.1-4.3,5.8-17.1c-0.4-0.4,4.4-11.9,7.7-12.5
		c9.5-1.8,19.5-0.6,28.5-0.6c-3.5,10.5-7,19.3-8.7,28.6c-0.2,1,10,4.2,15.6,6.4c5.8-31.9,31.9-46.5,59.3-35.1
		c8.7,3.6,17.8,6.9,25.5,12.5c5.7,4.1,9.3,11.7,13.9,17.6c3.6,4.7,7.4,9.2,13.7,17c-11.1,6.6-23.1,13.7-35.1,20.8
		c0.4,1.9,0.7,3.7,1,5.5c-13.7-3.4-27.3-6.7-45.4-11.2c13.3-8.7,23.4-15.2,34.9-22.7c-29.2-27.7-49.4,2.2-68.8,13.5
		c-6.1,6.5-12.3,13-20.1,21.3c-3.9-7.8-6.3-12.5-10.3-20.3c-20.9,11.8-41.1,23.2-60.7,34.4c2.6,26.8,3.9,27.9,39.1,34.9
		c0.6,8.7,1.2,17.8,1.9,27.3c2.1,0.3,4.7,1.4,5.5,0.6c12.1-13.1,20.7-30.7,40.2-34.5c1.6-0.3,1.8-11,1.9-16.8
		c0.4-25.5,7.8-31.8,31.2-25.8c5.4,1.4,10.7,3.2,17,5.1c0.4,7.2,0.8,14.4,1.3,24.6c11.4-4.2,21.5-7.9,32.7-12
		c1.1,16.1,0.4,32.8,17.9,40.6c1.3,0.6-1.4,14.4-4,21.2c-1.2,3.1-6.8,4.2-13.4,7.8c8.3,4.8,14.5,7.5,19.5,11.8
		c2.6,2.2,3,7.4,4.4,11.2c-3.3,0.7-6.8,2.7-9.7,2c-8.2-2.1-16.2-5.4-25.5-8.7c3.3-8.7,5.8-15.1,8.3-21.6c-15.4,6-28.1,12.7-41.3-1.9
		c-1.9-2.1-9.8,1.9-14.9,3c3.3,5.5,6.7,11,11.2,18.5c0.6-1.4-0.4,1.9-0.9,1.8c-18.9-3.8-27,10.6-38.2,22.8
		c-15.1,16.4-38.5,25.7-49.5,44.2c-13.2,22.2-32.4,35.1-48.1,53c-7.6,8.7-8.5,24.3-13.7,40.8c-6.2-7.4-12.8-15.2-19.4-23
		c0.9-2.8,1.9-5.5,2.8-8.3c-23.6,3.3-47.5,5-70.6,10.4c-20.9,5-28.4,25.5-32.1,45.3c-1.6,8.9,1.7,23.4,7.7,28
		c6.2,4.8,19.2,3.4,27.7,0c10.7-4.2,19.8-13.1,29.7-20c1.7,0.8,3.3,1.5,5,2.3c-2.6,10.5-5.2,20.9-8.1,32.4c7.8,2,16,4.1,25.9,6.7
		c1,15,1.9,30.1,2.8,44.9c23.2,8.6,43.8,14.1,59-13.8c5.8-10.7,31-8.9,39.2,3.6c9.8,15,24.3,13.1,33.1,7.7
		c14.7-8.9,20.9-0.9,26.1,9.3c7.9,15.5,17.2,24.8,35.1,22.6c15.1-1.9,16.8,13.2,20.8,23.8c3.1,8.2,2,21.8,7.1,24.9
		c11.5,7.1,25.5,9.7,38.7,13.1c5.9,1.5,12.5,1,18.7,0.2c11.3-1.5,18,3.3,24.2,13.7c4.6,7.6,13.6,12.1,23.4,20.5
		c-2.2,5.7-3.7,15.6-9,21.6c-13.9,15.9-18.6,34.2-18.4,55.1c0,4.6-1,9.3-1.6,14c-3.1,23.5-12.5,32.4-34,32.5
		c-18.6,0-27.4,9.7-22.2,28.2c4.7,16.8,1.6,29.1-9,41.8c-9.1,10.9-14.3,25.7-24.2,35.4c-10.1,9.9-23.6,16-36,22.9
		c-4.7,2.6-10.4,2.9-18.9,5.1c6.6,6.3,10.7,10.3,14.8,14.1c-12.8,25.7-12.8,25.7,7.8,31.8c-0.8,10.9-4.6,22.9-1.6,32.6
		c2.7,8.9,12.7,15.2,22.3,25.9c-22.1,4.3-36,4.3-49-9.3c-24.5-25.6-45.1-52.1-37-92.5c0.8-4-0.2-10.5-2.7-13
		c-15.6-15-13.3-32.9-8.7-51.6c0.6-2.6,1.9-6.6,0.8-7.7c-19.6-20.1-9.4-45.8-8.4-67.9c1.2-26.1-8.6-40.7-28-50.1
		c-11.7-5.7-19.2-11.9-24.3-26c-5.2-14.3-17.8-25.5-27-38.3c-11.6-16-7-57.6,9.4-67.4c15.6-9.4,13.2-22.6,10.4-36.1
		c-0.7-3.6-7.9-8.3-12-8.2c-20.1,0.8-33.4-9.5-45.7-25.4c-6.6-8.5-17.7-13.1-27.3-18.6c-6.8-3.9-18.4,0.2-18.4-14.6
		c0-1.5-8.8-5.2-12.9-4.2c-26.3,6.1-46-2.1-58.1-25.7c-1.5-2.9-4.4-7.3-3.5-8.8c9.8-16.4-4-25.4-9.3-37.2
		c-5.6-12.3-10-25.3-15.2-37.9c-2-4.8-4.9-9.2-7.4-13.7c-2.7,1.4-5.4,2.7-8.1,4.1c8.2,22.4,16.3,44.7,24.6,67.3
		c-17.6,2.6-36.1-19-37.5-42c-0.5-8,0.5-16.2-0.3-24.1c-0.5-4.7-2.6-9.7-5.2-13.5c-4.4-6.3-14.2-11.9-14.1-17.7
		c0.2-16,3.3-32.2,7.5-47.6c1.9-7.1,8.9-12.7,13.8-18.8c9.9-12.2,19.8-23.8,14.7-42.6c-1.3-4.9,3.5-11.6,4.7-15.3
		c-2.6-10.6-3.4-20.4-7.3-28.7c-3.8-8.2-9.6-19.1-16.4-21c-12.3-3.4-27.2-4.7-38.8-0.3C50.4,180,24.7,180.1,0,160.9
		C0,159.5,0,158.2,0,156.8z M337.4,263c16,0.9,28.4,1.7,42.2,2.5C372.2,243.8,356.9,242.6,337.4,263z M363.9,273
		c-1.1-1.9-2.1-3.8-3.2-5.6c-6.2,3.8-13.6,6.5-18,11.9c-3.1,3.8-2.1,11.5-3,17.4c4.6-2.6,10.1-4.3,13.7-8
		C357.7,284.4,360.5,278.3,363.9,273z M336.3,214.7c-1.5-2.1-3-4.2-4.5-6.3c-6.6,1.5-13.2,2.9-24.8,5.5c7.8,7.4,13.3,15.8,16.4,14.9
		C328.4,227.1,332,219.7,336.3,214.7z M264.7,139.5c11.1-3.2,19.6-5.5,28-8.3c0.4-0.2-0.4-4.6-0.6-7.1c-8.5,1.5-17,3-25.4,4.8
		C266.2,128.9,266.1,131.2,264.7,139.5z"/>
	<path d="M1358.2,537.7c-3,3.2-6.2,6.2-8.8,9.6c-7.2,9.3-14.3,7.4-19.6-1.4c-11.2-18.6-22.6-37.1-31.7-56.9
		c-3.4-7.5-1.8-18.4-0.6-27.5c2.6-18.9-6.9-27.9-21.9-30.7c-27.6-5.1-55.5-8.9-83.3-12.8c-21.7-3.1-43.6-5.1-50.6-33.9
		c-0.7-2.7-6.5-4.1-10.6-6.5c-7,19.9-3.7,32.2,14.5,39.3c19.2,7.5,38,16.4,56.4,26c3.4,1.8,6.2,13.8,5.5,14.3
		c-28.5,18.1-49,50.5-84.8,55.7c-13.9,2-19.9-6.5-24.1-19.2c-3.8-11.4-7.9-23.4-14.4-33.1c-12.5-18.6-26.9-35.7-40.5-53.4
		c-1.5,1-3,2.1-4.5,3.1c6.6,13.8,13.1,27.7,19.9,41.5c8.7,17.8,17.5,35.5,26.3,53.3c12.7,25.7,15.9,27.1,42.8,21.2
		c12.8-2.8,25.8-4.9,38.7-7.4c1.3,2.2,2.5,4.3,3.8,6.5c-19.9,28.5-39.3,57.5-59.9,85.4c-8.1,10.9-19.7,18.8-27.9,29.6
		c-3.5,4.6-4.8,13.9-3.2,19.9c8.1,30.7,15.7,60.3-8.5,88.1c-9.5,11-15,25.9-24.3,42.6c-4.6,5.5-11.8,14.3-19.2,23
		c-14.3,16.8-26.1,38.5-43.7,48.8c-15.3,8.9-37.1,4.7-49.6,5.7c-10-23.7-18.3-42.1-25.4-60.9c-2.2-5.9-2-13.1-2-19.7
		c0-14-0.5-26.4-10.6-38.7c-5-6.1-3.5-24.1,1.4-32.5c11-18.7,10.3-34-1.8-50.9c-17.6-24.8-26.3-52.4-18.4-79.8
		c-16.1-7.8-28.9-15.3-42.4-20.2c-6.5-2.3-16.6-2.9-21.4,0.9c-19.4,15.7-42.3,5.5-62.8,11.7c-3.2,1-8.8-3.9-12.1-7.4
		c-7.1-7.5-12.8-16.6-20.1-23.9c-24.5-24.4-30.4-51.4-12-82.8c0.9-1.5,0.6-3.9,0.9-5.8c-18.2-10.9-18.6-18.9-1.6-32.1
		c8.6-6.7,16.9-14,25.9-19.8c11.2-7.2,17-16,15.7-30.9c-1.6-19.4,15.2-23.2,26.2-25.5c32.6-7,65.8-10.5,98.7-15.3
		c1.8-0.3,3.7,0.2,6.9,0.5c0.6,9,1.3,18.2,2,28.8c18.3,6,37,12.2,55.7,18.4c7.6-18.9,23.2-24.7,38-10.6c16,15.1,33.9,12.2,51.4,10.7
		c12.1-1.1,19.3-10.9,18.4-25.5c-0.9-15-9.7-18.7-21.6-18.7c-3.1,0-6.2,0.1-9.4,0.1c-27.4,0.4-29.7-1.9-41.7-38.3
		c-5.3,10.8-10.5,21.6-18.3,37.5c-6.2-13.9-12.6-24.7-15.8-36.4c-4.4-16.4-25.2-31.9-44.7-30.2c-1.7,24,19.7,25.7,31,36.5
		c-5.3,30.3-11.4,34.5-28.8,18.8c6.1-1.8,11.6-3.4,20.7-6.1c-16.9-13.8-31.3-25.5-44.4-36.1c-8.8,1.9-19.8,1.4-27.3,6.6
		c-9.4,6.6-18.9,16.6-23,27.4c-7.7,20.3-21.4,20.8-37.6,20c-21.4-1-28-8.4-27.3-33c0.5-16.1,9.7-23.4,29.1-22.4
		c5.6,0.3,11.5,3.9,16.4,2.6c3.4-0.9,8-8.1,7.6-11.9c-0.9-8.3-4.7-16.2-7.3-24.2c2.6,1,5.1,1.9,7.7,2.9
		c11.7-10.3,22.9-21.2,35.3-30.5c6.1-4.7,14-7.5,21.4-9.1c7.1-1.5,14.7-0.3,23.2-0.3c-0.8-7.6-1.6-14.8-2.5-22.8
		c-6.9,2.4-12.8,4.5-17.1,6c-6.6-6.8-13.7-11.9-17.9-19c-2.7-4.6-4-15.1-1.4-17.7c17.3-17,34.2-35.7,54.3-48
		c33.6-20.6,69.9-21,105.5-2.9c8.4,4.2,16.8,8.3,25.1,12.5c0.1,2,0.2,3.9,0.3,5.9c-15.6,2.6-31.2,5.2-51.2,8.5
		c35.1,14.9,50.1,9.2,71.7-24.5c3.6,4.5,6.9,8.6,11.4,14.2c27.4-25.4,60.3-9.2,92.2-12.1c0-9.7,0-19.1,0-28.6
		c22.8,1.6,22.8,1.6,30.6,39.7c12,2.6,17.5-2.8,15.7-15.8c-1.7-12.8,4.3-17.8,14.1-24c32.3-20.4,67.9-20.4,103.2-22.7
		c4-0.3,9.3,0.8,12.2,3.5c24.1,22.5,53.1,20.2,81.7,18.8c16.3-0.8,30.3,2.3,43.2,14.1c4.1,3.8,16.3,5.3,18.7,2.2
		c21.6-27.6,46.6-13.1,70.7-8c10.9,2.3,21.4,7.3,32.3,8c54.2,3.6,108.7,4.4,162.8,9.9c20.8,2.1,40.7,14,61.1,21.4
		c-0.5,2.9-1.1,5.7-1.7,8.6c-14-1.7-28-3.5-45.8-5.6c5.4,7.7,8.8,12.6,13.5,19.4c-16.3,7.2-32.1,14.2-50.9,22.5
		c5.6,5,13.1,10,18.3,17c4.8,6.4,8,14.7,10.2,22.6c0.9,3.1-1.6,9.3-4.3,11.2c-2.7,1.9-8.7,1.6-11.4-0.4c-11.1-8.6-23-17.1-31.5-28.2
		c-4-5.2-1.4-16.7-0.9-25.2c0.3-5.9,2.3-11.6,1.2-19.1c-30.1,19.1-57,44.8-93.5,18.9c-3.5,4.6-7,8.4-9.5,12.8
		c-7.2,12.6-3.4,21.8,10,24.1c11.1,1.8,22.3,2.8,33.5,4.4c16.5,2.3,20.8,16.8,28.5,27.8c-1.1,1.3-2.3,2.6-3.4,4
		c-5.6-4.4-11.2-8.7-20-15.7c3.2,21.3,6,39.6,9.1,59.9c-14.4,0-23.6,0-33.3,0c-7.6,17-6.5,29.2,10.6,37.7c8,4,14.3,11.9,21.4,18
		c-0.8,2-1.6,4.1-2.4,6.1c-6.7-1.8-14.3-2-19.8-5.8c-12.6-8.7-23.7-19.7-36.2-28.5c-6.1-4.3-14-5.7-21.8-8.6
		c-4.6,22.6-3.4,40.3,13.1,53.3c2,1.6,3.4,4,5.2,5.8c33.9,32.8,24.7,63-16.4,75.1c-7.7,2.3-15.1,5.9-22.4,8.8
		c-0.6,7.7-1.2,14.5-1.7,21.2c-1.5,0.5-3,1-4.4,1.6c-2.9-5.7-5.5-11.7-9-17c-2.8-4.2-7.1-10.6-10.3-10.3c-4.2,0.4-11.5,6.8-11.2,9.9
		c1,10.4,3.5,21.2,7.9,30.4c2.9,6,10.5,9.3,15.5,14.2c8.4,8.3,14.4,18.6,4.3,29c-9.5,9.7-21.1,15.4-32.5,1.6
		c-5.7-6.9-11.4-13.8-17-20.7c-2,0.7-4,1.4-5.9,2.1c1.6,8.7,1.3,18.6,5.3,25.8c9.9,17.8,22,34.2,32.8,51.4
		c3.2,5.1,5.5,10.9,8.2,16.3c-1.6,1.5-3.3,3-4.9,4.5c-13-13.4-24.9-28.5-39.4-39.7c-18.4-14.2-17.9-32.9-17.6-53.3
		c0.6-42-45.3-80.3-84.1-71.9c-19.1,4.1-24.3,20.3-27.8,36.1c-4,18-4.5,37-6.6,55.5L1358.2,537.7z M964.2,127.1
		c-1.4-1.7-2.8-3.5-4.3-5.2c-28.8,8.1-41.9,23.9-41.4,52.4c0.3,12.2-2,20.8-13.7,24.4c-3.5,1.1-6.9,2.4-10.4,3.5
		c32.8,13.8,45.8,8,55.5-19.8c1.9-5.4-0.8-16.6-4.9-19.6c-11.9-8.8-8.2-14,1-20.6C952.3,137.6,958.2,132.2,964.2,127.1z M1118,330
		c13,3.5,21.7,6.7,30.7,8c8.8,1.3,17.2-2.9,11.2-13.3c-7.7-13.3-18.9-24.2-28.4-36.3c-2.5-3.1-4.4-6.7-7.9-12.1
		c9.3-1.4,15.7-2.5,22.1-3.5c0.5-2,1.1-3.9,1.6-5.9c-7.7-2.8-15.2-7-23-7.8c-3.9-0.4-11.9,5.9-11.8,9c0.2,9.1,0.7,22.4,6.1,26.5
		C1133.4,306.1,1136.1,315.5,1118,330z M998.5,315c20.4,0,40.4,0,60.5,0c-9.2-13.5-17.6-25.7-26.4-38.5
		C1020.3,285.5,988.2,275.3,998.5,315z"/>
	<path d="M1560,874.9c0-0.5-1-4.3,0.2-5.4c20-19.7,14.3-45.9,13.7-69.7c-0.5-19.7,9.6-33.1,22.6-33.4c26.3-0.7,34.8-22.4,49.7-37.3
		c5.1-5.1,11.3-11.3,17.6-12.3c7.1-1.1,15,3,25.5,5.6c11.2-5.4,10.7-32.9,32.2-29c12.8,2.3,25.2,7.2,37.8,11c0,2.7,0.1,5.4,0.1,8.1
		c-7,3.3-14,6.6-22.5,10.6c-3.4,25.9,17.3,16.8,32,21.7c2.3-16.6,4.4-32.1,6.5-47.4c14.5-0.1,27.5,13.8,27.6,32.5
		c0,20.5,3.8,36.3,20.1,50.3c14.5,12.4,9,47.4-8.5,67c-15.6,17.4-31.5,34.9-49.4,49.1c-7.7,6.1-21,3.8-31.7,5.7
		c-24.9,4.2-42.2-4-47.8-32.5c-2.7-13.8-11.3-17.7-23.6-15.2C1628.6,861,1595.2,867.7,1560,874.9z"/>
	<path d="M1552,623.3c-2.6-20.7,6.3-32.2,23.9-40.7c13.2-6.4,24.1-18.5,36.2-28.2c20.6,27.3,12.2,63.8-8.6,82.6
		c-7.6,6.9-26.8,0.2-40.5-2.3c-4.4-0.8-7.8-7.9-11.6-12.1L1552,623.3z"/>
	<path d="M1737.8,631.9c17.4-13.3,34.5-4.7,52.2,4.4c13.9,7.2,27.7,12.3,25.2,33.7c-0.5,4.1,6.4,9.1,12.3,16.8
		c-8,0.8-14.6,1.4-22.2,2.2c-0.9-8.4-1.6-15.5-2.6-24.2c-17.5,6.5-34.9,12.8-52.2,19.2c-1.6-2-3.1-4.1-4.7-6.1
		c2.4-6.2,4.8-12.4,7.8-20.3c-10.4-19.7-43.9-1.5-51.8-32.1c5.7-5,11.9-10.4,20.5-17.9C1726.3,614.1,1731.1,621.5,1737.8,631.9z"/>
	<path d="M1107.5,822c-16.3-10.7-17.4-25.7-9.4-40c6.4-11.5,16.1-19.9,5-34.4c-2.7-3.5-0.4-11.4-0.4-18.3c8.9,1.1,16.1,1.9,22.5,2.7
		c13.4-7.1,7.5-35.6,30.4-30.6C1155.9,749.4,1134.5,786.2,1107.5,822z"/>
	<path d="M1551.4,622.6c0.6,5.2,1.1,10.5,1.3,11.5c-6.4,7.3-10.7,12.1-14.9,17c5.8,2,11.4,4.3,17.3,6c10.3,3,20.7,5.6,31,8.4
		c-0.3,1.7-0.6,3.3-0.9,5c-21.9,0-43.8,0-69.3,0c4.1-6.6,6.1-9.7,7.6-12.1c-21.1-27.5-42.8-55.6-64.4-83.7c0.7-2.1,1.3-4.1,2-6.1
		c5,1.1,11.7,0.3,14.7,3.5c13.3,14.3,23.8,32.4,38.8,44c9.3,7.2,24.8,5.3,37.5,7.4C1552,623.3,1551.4,622.6,1551.4,622.6z"/>
	<path d="M1898.6,854.3c8,11.9,13.8,20.3,21.4,31.5c-44.3,15.7-75.9,56.8-125.2,67.4c0.8-6.5,0.2-11.1,1.8-12.3
		c20.6-15.2,36.9-38,64.5-40.8c16.9-1.7,26.9-10.4,26.1-31.1C1886.6,855.2,1888.1,855.1,1898.6,854.3z"/>
	<path d="M792.4,201.9c-10.5-16.8-8.7-20.7,9.9-24.4c9,16.5,17.8,32.5,28.4,51.9c-6.7,15.3-23.1,6.3-42.5,8.9
		c6.6-11.3,10.8-18.6,16.2-28c-3-2.1-7.8-5.5-12.7-9L792.4,201.9z"/>
	<path d="M1647.6,614.6c0,14.3,0,27.2,0,40c-1.2,0.3-2.4,0.6-3.6,1c-2.5-5.1-5-10.1-8.8-17.8c-2.3,8.2-4,14.3-6,21.2
		C1613.7,637.8,1621.4,620.4,1647.6,614.6z"/>
	<path d="M791.8,201.3c-2.5,20-13.4,29.3-31.8,27.1c1.6-23.9,7.5-28.7,32.4-26.5C792.4,201.9,791.8,201.3,791.8,201.3z"/>
	<path d="M1708.7,931.2c8.6-5.9,16.8-12.4,25.9-17.2c2.3-1.2,10.3,2.9,10.2,4.5c0,4.5-1.9,11.6-4.9,13c-8.6,4-18.1,5.7-27.3,8.3
		C1711.4,936.9,1710,934.1,1708.7,931.2z"/>
	<path d="M1357.9,538.2c4.9,2.3,9.7,4.5,19.2,8.9c-6.3,9.4-12,17.8-17.8,26.3c-18.6-15.4-1.3-24.8-1.1-35.8
		C1358.2,537.7,1357.9,538.2,1357.9,538.2z"/>
	<path d="M337.4,263c19.5-20.4,34.8-19.2,42.2,2.5C365.8,264.7,353.4,263.9,337.4,263z"/>
	<path d="M363.9,273c-3.4,5.3-6.2,11.4-10.5,15.7c-3.7,3.7-9.1,5.4-13.7,8c0.9-5.9-0.1-13.6,3-17.4c4.4-5.5,11.9-8.1,18-11.9
		C361.8,269.2,362.8,271.1,363.9,273z"/>
	<path d="M336.3,214.7c-4.2,5-7.8,12.5-13,14.1c-3,0.9-8.6-7.4-16.4-14.9c11.7-2.6,18.2-4.1,24.8-5.5
		C333.2,210.4,334.8,212.5,336.3,214.7z"/>
	<path d="M264.7,139.5c1.4-8.2,1.5-10.5,1.9-10.6c8.4-1.7,16.9-3.2,25.4-4.8c0.2,2.5,1.1,7,0.6,7.1
		C284.3,134,275.8,136.3,264.7,139.5z"/>
	<path d="M964.2,127.1c-6.1,5.1-11.9,10.5-18.2,15.1c-9.2,6.7-12.9,11.8-1,20.6c4.1,3,6.8,14.2,4.9,19.6
		c-9.7,27.8-22.7,33.6-55.5,19.8c3.5-1.2,6.9-2.5,10.4-3.5c11.7-3.6,14-12.2,13.7-24.4c-0.6-28.5,12.5-44.3,41.4-52.4
		C961.4,123.7,962.8,125.4,964.2,127.1z"/>
	<path d="M1118,330c18.1-14.4,15.5-23.9,0.5-35.2c-5.4-4.1-5.9-17.3-6.1-26.5c-0.1-3.1,7.9-9.4,11.8-9c7.8,0.7,15.4,5,23,7.8
		c-0.5,2-1.1,3.9-1.6,5.9c-6.4,1-12.8,2-22.1,3.5c3.5,5.4,5.4,9,7.9,12.1c9.5,12.1,20.7,23,28.4,36.3c6,10.4-2.4,14.6-11.2,13.3
		C1139.7,336.6,1130.9,333.5,1118,330z"/>
	<path d="M998.5,315c-10.3-39.7,21.8-29.5,34.1-38.5c8.8,12.9,17.2,25,26.4,38.5C1038.9,315,1018.9,315,998.5,315z"/>
</g>
</svg>
